Coordinates
version=1
nRows=54
nColumns=12
inDegrees=yes

Units are S.I. units (second, meters, Newtons, ...)
Angles are in degrees

endheader
time	SC_y	SC_z	SC_x	AC_y	AC_z	AC_x	GH_y	GH_z	GH_yy	EL_x	PS_y
       0.0              -11.09          16.17          80.41          39.78         -14.98         -6.488         -107.0          34.85          136.4          18.69          103.0
   0.02198              -11.09          16.17          80.41          39.78         -14.98         -6.488         -107.0          34.84          136.4           18.7          103.0
   0.04396              -11.09          16.16          80.41          39.78         -14.98         -6.489         -107.0          34.84          136.4          18.71          103.0
   0.06593              -11.09          16.16          80.41          39.78         -14.98         -6.489         -107.0          34.84          136.4          18.71          103.0
   0.08791              -11.09          16.16          80.41          39.78         -14.98         -6.489         -106.9          34.83          136.4          18.72          103.0
    0.1099              -11.09          16.15          80.41          39.78         -14.98          -6.49         -106.9          34.83          136.4          18.73          103.0
    0.1319              -11.09          16.15          80.41          39.78         -14.98          -6.49         -106.9          34.82          136.4          18.74          103.0
    0.1538              -11.09          16.15          80.41          39.78         -14.98          -6.49         -106.9          34.82          136.3          18.75          103.0
    0.1758              -11.09          16.14          80.41          39.78         -14.97         -6.491         -106.8          34.81          136.3          18.76          103.0
    0.1978              -11.09          16.14          80.41          39.78         -14.97         -6.492         -106.8          34.81          136.3          18.77          103.0
    0.2198              -11.09          16.14          80.41          39.78         -14.97         -6.492         -106.8           34.8          136.3          18.78          103.0
    0.2418              -11.09          16.13          80.41          39.78         -14.97         -6.493         -106.7           34.8          136.3          18.79          103.0
    0.2637              -11.09          16.13          80.42          39.78         -14.97         -6.493         -106.7          34.79          136.3           18.8          103.0
    0.2857              -11.09          16.12          80.42          39.78         -14.97         -6.494         -106.6          34.78          136.2          18.82          103.0
    0.3077              -11.09          16.11          80.42          39.78         -14.97         -6.495         -106.6          34.77          136.2          18.83          103.0
    0.3297              -11.09          16.11          80.42          39.78         -14.97         -6.496         -106.5          34.76          136.2          18.85          103.0
    0.3516              -11.09           16.1          80.42          39.78         -14.96         -6.496         -106.5          34.75          136.2          18.87          103.0
    0.3736              -11.09          16.09          80.42          39.78         -14.96         -6.497         -106.4          34.74          136.2          18.89          103.0
    0.3956               -11.1          16.08          80.42          39.78         -14.96         -6.499         -106.3          34.73          136.1          18.91          103.0
    0.4176               -11.1          16.07          80.42          39.78         -14.96           -6.5         -106.3          34.72          136.1          18.93          103.0
    0.4396               -11.1          16.06          80.42          39.78         -14.96         -6.501         -106.2           34.7          136.1          18.96          103.0
    0.4615               -11.1          16.05          80.43          39.78         -14.95         -6.502         -106.1          34.69          136.0          18.99          103.0
    0.4835               -11.1          16.04          80.43          39.78         -14.95         -6.504         -106.0          34.67          136.0          19.02          103.0
    0.5055               -11.1          16.03          80.43          39.79         -14.95         -6.506         -105.9          34.65          135.9          19.06          103.0
    0.5275               -11.1          16.01          80.43          39.79         -14.94         -6.508         -105.8          34.63          135.9           19.1          103.0
    0.5494               -11.1          15.99          80.43          39.79         -14.94          -6.51         -105.6          34.61          135.8          19.14          103.0
    0.5714               -11.1          15.98          80.44          39.79         -14.94         -6.512         -105.5          34.58          135.8          19.19          103.0
    0.5934              -11.11          15.95          80.44          39.79         -14.93         -6.515         -105.3          34.55          135.7          19.24          103.0
    0.6154              -11.11          15.93          80.44          39.79         -14.93         -6.518         -105.1          34.52          135.6          19.31          103.0
    0.6374              -11.11           15.9          80.45          39.79         -14.92         -6.521         -104.9          34.48          135.5          19.38          103.0
    0.6593              -11.11          15.87          80.45          39.79         -14.91         -6.525         -104.6          34.44          135.4          19.46          103.0
    0.6813              -11.12          15.83          80.46          39.79          -14.9          -6.53         -104.3          34.39          135.3          19.55          103.0
    0.7033              -11.12          15.79          80.46          39.79         -14.89         -6.535         -104.0          34.33          135.2          19.66          103.0
    0.7253              -11.13          15.74          80.47          39.79         -14.88         -6.541         -103.6          34.27          135.0          19.78          103.0
    0.7472              -11.13          15.69          80.48          39.79         -14.87         -6.548         -103.2          34.19          134.8          19.93          103.0
    0.7692              -11.14          15.62          80.49          39.79         -14.85         -6.556         -102.6           34.1          134.6           20.1          102.9
    0.7912              -11.14          15.54           80.5           39.8         -14.84         -6.566         -102.0          33.99          134.3           20.3          102.9
    0.8132              -11.15          15.45          80.52           39.8         -14.81         -6.578         -101.2          33.86          134.0          20.55          102.9
    0.8352              -11.16          15.33          80.53           39.8         -14.79         -6.593         -100.3           33.7          133.6          20.84          102.9
    0.8571              -11.17          15.19          80.55           39.8         -14.76          -6.61         -99.14          33.51          133.1           21.2          102.9
    0.8791              -11.19          15.02          80.58          39.81         -14.72         -6.632         -97.74          33.27          132.6          21.65          102.9
    0.9011              -11.21           14.8          80.61          39.81         -14.67         -6.659         -95.99          32.97          131.8           22.2          102.9
    0.9231              -11.23          14.53          80.65          39.82          -14.6         -6.693         -93.79           32.6          130.9           22.9          102.8
     0.945              -11.26          14.18          80.71          39.82         -14.52         -6.737         -90.99          32.12          129.8          23.79          102.8
     0.967               -11.3          13.74          80.77          39.83         -14.42         -6.792         -87.41          31.51          128.3          24.93          102.8
     0.989              -11.35          13.17          80.86          39.85         -14.29         -6.863         -82.82          30.73          126.4          26.39          102.7
     1.011              -11.42          12.44          80.97          39.86         -14.13         -6.954         -76.95          29.74          123.9          28.25          102.6
     1.033               -11.5          11.52           81.1          39.88         -13.92         -7.069         -69.57          28.48          120.9           30.6          102.6
     1.055               -11.6          10.41          81.27           39.9         -13.66         -7.208         -60.58          26.96          117.1          33.46          102.4
     1.077              -11.71          9.117          81.46          39.93         -13.36          -7.37         -50.15          25.18          112.8          36.77          102.3
     1.099              -11.84          7.718          81.67          39.96         -13.04         -7.545         -38.86          23.27          108.1          40.36          102.2
     1.121              -11.96          6.318          81.88          39.99         -12.72          -7.72         -27.58          21.35          103.4          43.95          102.0
     1.143              -12.08          5.026          82.07          40.02         -12.43         -7.881         -17.15          19.58           99.1          47.26          101.9
     1.165              -12.18          3.911          82.24          40.04         -12.17         -8.021         -8.158          18.05          95.37          50.12          101.8
